<?xml version="1.0" encoding="UTF-8"?>
<svg id="Layer_2" data-name="Layer 2" xmlns="http://www.w3.org/2000/svg" viewBox="0 0 390.14 390.14">
  <defs>
    <style>
      .cls-1 {
        fill: #231f20;
        stroke-width: 0px;
      }
    </style>
  </defs>
  <g id="Layer_2-2" data-name="Layer 2">
    <path class="cls-1" d="M370.3,0H19.84C8.88,0,0,8.88,0,19.84v350.46c0,10.96,8.88,19.84,19.84,19.84h350.46c10.96,0,19.84-8.88,19.84-19.84V19.84c0-10.96-8.88-19.84-19.84-19.84ZM241.24,307.13h-51.58l-82.27-119.62h-1.33v119.62h-61.81V79.45h52.47l80.93,119.17h1.78v-119.17h61.81v227.67ZM331.46,295.29c-2.93,4.71-6.73,8.45-11.4,11.23-4.67,2.78-9.75,4.17-15.23,4.17-8.6,0-15.95-3.02-22.07-9.06-6.11-6.04-9.14-13.4-9.06-22.07-.08-8.45,2.95-15.68,9.06-21.68,6.11-6,13.47-9,22.07-9,8.15,0,15.36,3,21.62,9,6.26,6,9.43,13.23,9.5,21.68-.08,5.78-1.58,11.02-4.5,15.73Z"/>
  </g>
</svg>